<?xml version="1.0" ?><!DOCTYPE svg  PUBLIC '-//W3C//DTD SVG 1.1//EN'  'http://www.w3.org/Graphics/SVG/1.1/DTD/svg11.dtd'><svg enable-background="new 0 0 48 48" height="48px" id="Layer_4" version="1.1" viewBox="0 0 48 48" width="48px" xml:space="preserve" xmlns="http://www.w3.org/2000/svg" xmlns:xlink="http://www.w3.org/1999/xlink"><g><path d="M45.516,20.701h-1.371c-0.783,0-1.848,0-3.043,0c-4.502,0-10.986,0-12.562,0   c-2.475,0-3.732,0.827-3.732,0.827l-13.108,9.85c-0.059,0.046-0.137,0.14-0.219,0.252c-0.485,0.435-0.805,1.047-0.805,1.749   c0,1.308,1.061,2.368,2.369,2.368c0.54,0,1.008-0.217,1.406-0.523v0.053l0.766-0.537c1.758-1.137,8.896-5.755,9.504-6.109   c0.696-0.402,1.678-0.348,2.43,0.695c0.867,1.735-1.33,3.007-1.33,3.007l-7.657,4.997c-1.496,0.975-2.817,1.169-3.476,1.203   L3.889,38.58c-0.174,0-0.338,0.009-0.505,0.016H2.556c-0.023,0-0.043-0.014-0.068-0.014c-0.816,0-1.5,0.444-1.921,1.077   c-0.018,0.027-0.037,0.053-0.055,0.082c-0.213,0.353-0.368,0.743-0.368,1.185c0,1.294,1.049,2.344,2.344,2.344H2.49h0.302h3.542   h13.833c0.567-0.007,2.712-0.121,4.758-1.468l11.635-7.666c0.037-0.025,1.113-0.736,3.074-0.748   c1.051-0.009,2.523-0.012,4.396,0.014c0,0,0.021,0,0.029,0c0.023,0,0.051,0,0.072,0c0.094,0,0.254-0.007,0.441-0.032h0.943   c1.293,0,2.34-1.047,2.34-2.341v-7.986C47.855,21.75,46.809,20.701,45.516,20.701z" fill="#241F20"/><path d="M0.942,10.945c0,0,0.025,0.137,0.087,0.375v0.009h0.002c0.396,1.552,2.394,7.65,10.231,13.034l0.004,0.023   l0.769,0.51l0.443-0.293l0.004-0.016c8.236-5.524,10.216-11.885,10.575-13.332l0.002-0.007c0.046-0.194,0.066-0.304,0.066-0.304   l-0.025-0.007c0.041-0.363,0.087-0.985-0.043-1.532c-0.002-0.016-0.016-0.012-0.021-0.027C22.605,6.745,20.335,4.73,17.58,4.73   c-2.938,0-5.316,2.291-5.508,5.179h-0.073C11.805,7.021,9.424,4.73,6.489,4.73c-2.867,0-5.199,2.184-5.49,4.975   c-0.025,0.014-0.045,0.05-0.057,0.119c-0.06,0.347-0.018,0.793,0.027,1.113L0.942,10.945z" fill="#241F20"/></g></svg>