<?xml version="1.0" ?><svg viewBox="0 0 48 48" xmlns="http://www.w3.org/2000/svg"><title/><path d="M42,46H6a6,6,0,0,1-6-6V17a6,6,0,0,1,6-6H42a6,6,0,0,1,6,6V40A6,6,0,0,1,42,46ZM6,15a2,2,0,0,0-2,2V40a2,2,0,0,0,2,2H42a2,2,0,0,0,2-2V17a2,2,0,0,0-2-2H6Z" fill="#2161ff"/><path d="M34,13H30V5H18v8H14V4a3,3,0,0,1,3-3H31a3,3,0,0,1,3,3v9Z" fill="#2161ff"/><rect fill="#a6c7ff" height="16" transform="translate(-4 52) rotate(-90)" width="6" x="21" y="20"/><rect fill="#a6c7ff" height="16" transform="translate(48 56) rotate(-180)" width="6" x="21" y="20"/><rect fill="none" height="48" width="48"/></svg>