<?xml version="1.0" ?><svg viewBox="0 0 32 32" xmlns="http://www.w3.org/2000/svg"><title/><g id="stethoscope"><path d="M27.31,15H26.9a5,5,0,1,0,0,2h.41A1.69,1.69,0,0,1,29,18.69v8.62A1.69,1.69,0,0,1,27.31,29H24.06a1.69,1.69,0,0,1-1.68-1.69V25.69a3.69,3.69,0,1,0-7.38,0v1.62A1.69,1.69,0,0,1,13.31,29H11.69A1.69,1.69,0,0,1,10,27.31V16.93A8,8,0,0,0,17,9V2a1,1,0,0,0-1-1H14a1,1,0,0,0,0,2h1V9A6,6,0,0,1,3,9V6.05S3,6,3,6V3H4A1,1,0,0,0,4,1H2A1,1,0,0,0,1,2V4S1,4,1,4V9a8,8,0,0,0,7,7.93V27.31A3.69,3.69,0,0,0,11.69,31h1.62A3.69,3.69,0,0,0,17,27.31V25.69a1.69,1.69,0,1,1,3.38,0v1.62A3.69,3.69,0,0,0,24.06,31h3.25A3.69,3.69,0,0,0,31,27.31V18.69A3.69,3.69,0,0,0,27.31,15ZM22,19a3,3,0,1,1,3-3A3,3,0,0,1,22,19Z"/><path d="M22,13.5A2.5,2.5,0,1,0,24.5,16,2.5,2.5,0,0,0,22,13.5Zm0,3a.5.5,0,1,1,.5-.5A.5.5,0,0,1,22,16.5Z"/></g></svg>